<svg display="none" xmlns="http://www.w3.org/2000/svg">
            <symbol id="cool" width="72" height="72" viewBox="0 0 72 72">
              <g clip-path="url(#clip0_2645_649)">
                    <g clip-path="url(#clip1_2645_649)">
                      <g clip-path="url(#clip2_2645_649)">
                      <path d="M69.75 54H6.75V18C6.75 15.5149 8.76487 13.5 11.25 13.5H65.25C67.7351 13.5 69.75 15.5149 69.75 18V54Z" fill="#353744"/>
                  </g>
                <g clip-path="url(#clip3_2645_649)">
                  <path d="M69.75 54H6.75V56.25C6.75 58.7351 8.76487 60.75 11.25 60.75H65.25C67.7351 60.75 69.75 58.7351 69.75 56.25V54Z" fill="#808080"/>
                </g>
                  <g clip-path="url(#clip4_2645_649)">
                      <path d="M65.25 54H6.75V18C6.75 15.5149 8.76487 13.5 11.25 13.5H60.75C63.2351 13.5 65.25 15.5149 65.25 18V54Z" fill="#55525B"/>
                                                </g>
                                                <g clip-path="url(#clip5_2645_649)">
                                                <path d="M65.25 54H6.75V56.25C6.75 58.7351 8.76487 60.75 11.25 60.75H60.75C63.2351 60.75 65.25 58.7351 65.25 56.25V54Z" fill="#DBDEE3"/>
                                                </g>
                                                <g clip-path="url(#clip6_2645_649)">
                                                <path d="M59.0625 18H12.9375C12.006 18 11.25 18.756 11.25 19.6875V47.8125C11.25 48.744 12.006 49.5 12.9375 49.5H59.0625C59.994 49.5 60.75 48.744 60.75 47.8125V19.6875C60.75 18.756 59.994 18 59.0625 18Z" fill="#FBBE18"/>
                                                </g>
                                                <g clip-path="url(#clip7_2645_649)">
                                                <path d="M18 27H42.75C43.9931 27 45 25.9931 45 24.75C45 23.5069 43.9931 22.5 42.75 22.5H18C16.7569 22.5 15.75 23.5069 15.75 24.75C15.75 25.9931 16.7569 27 18 27Z" fill="#F68820"/>
                                                </g>
                                                <g clip-path="url(#clip8_2645_649)">
                                                <path d="M18 36H42.75C43.9931 36 45 34.9931 45 33.75C45 32.5069 43.9931 31.5 42.75 31.5H18C16.7569 31.5 15.75 32.5069 15.75 33.75C15.75 34.9931 16.7569 36 18 36Z" fill="#F68820"/>
                                                </g>
                                                <g clip-path="url(#clip9_2645_649)">
                                                <path d="M18 45H42.75C43.9931 45 45 43.9931 45 42.75C45 41.5069 43.9931 40.5 42.75 40.5H18C16.7569 40.5 15.75 41.5069 15.75 42.75C15.75 43.9931 16.7569 45 18 45Z" fill="#F68820"/>
                                                </g>
                                                <g clip-path="url(#clip10_2645_649)">
                                                <path d="M46.6875 65.25H42.1875V60.75H46.6875V65.25Z" fill="#808080"/>
                                                </g>
                                                <g clip-path="url(#clip11_2645_649)">
                                                <path d="M31.5 60.75H42.1875V65.25H31.5V60.75Z" fill="#B3B4B6"/>
                                                </g>
                                                <g clip-path="url(#clip12_2645_649)">
                                                <path d="M51.1875 65.25H23.0625C20.5774 65.25 18.5625 67.2649 18.5625 69.75H55.6875C55.6875 67.2649 53.6726 65.25 51.1875 65.25Z" fill="#DBDEE3"/>
                                                </g>
                                                <g clip-path="url(#clip13_2645_649)">
                                                <path d="M51.1875 65.25H46.6875C44.2024 65.25 42.1875 67.2649 42.1875 69.75H55.6875C55.6875 67.2649 53.6726 65.25 51.1875 65.25Z" fill="#808080"/>
                                                </g>
                                                <g clip-path="url(#clip14_2645_649)">
                                                <path d="M19.125 2.25H15.75C8.29463 2.25 2.25 8.29463 2.25 15.75C2.25 23.2054 8.29463 29.25 15.75 29.25H19.125C26.5804 29.25 32.625 23.2054 32.625 15.75C32.625 8.29463 26.5804 2.25 19.125 2.25Z" fill="#5C76B2"/>
                                                </g>
                                                <g clip-path="url(#clip15_2645_649)">
                                                <path d="M15.75 29.25C23.2058 29.25 29.25 23.2058 29.25 15.75C29.25 8.29416 23.2058 2.25 15.75 2.25C8.29416 2.25 2.25 8.29416 2.25 15.75C2.25 23.2058 8.29416 29.25 15.75 29.25Z" fill="#6FA4D8"/>
                                                </g>
                                                <g clip-path="url(#clip16_2645_649)">
                                                <path d="M15.75 27C21.9632 27 27 21.9632 27 15.75C27 9.5368 21.9632 4.5 15.75 4.5C9.5368 4.5 4.5 9.5368 4.5 15.75C4.5 21.9632 9.5368 27 15.75 27Z" fill="#55525B"/>
                                                </g>
                                                <g clip-path="url(#clip17_2645_649)">
                                                <path d="M15.75 16.3125C15.4395 16.3125 15.1875 16.0605 15.1875 15.75V6.75C15.1875 6.4395 15.4395 6.1875 15.75 6.1875C16.0605 6.1875 16.3125 6.4395 16.3125 6.75V15.75C16.3125 16.0605 16.0605 16.3125 15.75 16.3125Z" fill="#6FA4D8"/>
                                                </g>
                                                <g clip-path="url(#clip18_2645_649)">
                                                <path d="M10.9768 21.086C10.8328 21.086 10.6888 21.0309 10.5786 20.9218C10.3592 20.7024 10.3592 20.3458 10.5786 20.1264L15.3508 15.353C15.5702 15.1336 15.9268 15.1336 16.1462 15.353C16.3656 15.5724 16.3656 15.929 16.1462 16.1484L11.374 20.9218C11.2648 21.0309 11.1208 21.086 10.9768 21.086Z" fill="#6FA4D8"/>
                                                </g>
                                            <g clip-path="url(#clip19_2645_649)">
                                            <path d="M15.75 18C16.9926 18 18 16.9926 18 15.75C18 14.5074 16.9926 13.5 15.75 13.5C14.5074 13.5 13.5 14.5074 13.5 15.75C13.5 16.9926 14.5074 18 15.75 18Z" fill="#F68820"/>
                                            </g>
                                            <g clip-path="url(#clip20_2645_649)">
                                            <path d="M15.75 16.875C16.3713 16.875 16.875 16.3713 16.875 15.75C16.875 15.1287 16.3713 14.625 15.75 14.625C15.1287 14.625 14.625 15.1287 14.625 15.75C14.625 16.3713 15.1287 16.875 15.75 16.875Z" fill="#DBDEE3"/>
                                            </g>
                                            <g clip-path="url(#clip21_2645_649)">
                                            <path d="M7.875 16.3125H6.75C6.4395 16.3125 6.1875 16.0605 6.1875 15.75C6.1875 15.4395 6.4395 15.1875 6.75 15.1875H7.875C8.1855 15.1875 8.4375 15.4395 8.4375 15.75C8.4375 16.0605 8.1855 16.3125 7.875 16.3125Z" fill="#F68820"/>
                                            </g>
                                            <g clip-path="url(#clip22_2645_649)">
                                            <path d="M15.75 25.3125C15.4395 25.3125 15.1875 25.0605 15.1875 24.75V23.625C15.1875 23.3145 15.4395 23.0625 15.75 23.0625C16.0605 23.0625 16.3125 23.3145 16.3125 23.625V24.75C16.3125 25.0605 16.0605 25.3125 15.75 25.3125Z" fill="#F68820"/>
                                            </g>
                                            <g clip-path="url(#clip23_2645_649)">
                                            <path d="M24.75 16.3125H23.625C23.3145 16.3125 23.0625 16.0605 23.0625 15.75C23.0625 15.4395 23.3145 15.1875 23.625 15.1875H24.75C25.0605 15.1875 25.3125 15.4395 25.3125 15.75C25.3125 16.0605 25.0605 16.3125 24.75 16.3125Z" fill="#F68820"/>
                                            </g>
                                            <g clip-path="url(#clip24_2645_649)">
                                            <path d="M52.875 45C51.6319 45 50.625 43.9931 50.625 42.75C50.625 41.5069 51.6319 40.5 52.875 40.5C54.1181 40.5 55.125 41.5069 55.125 42.75C55.125 43.9931 54.1181 45 52.875 45Z" fill="#F68820"/>
                                            </g>
                                            <g clip-path="url(#clip25_2645_649)">
                                            <path d="M52.031 23.3439L52.8747 24.1877L55.406 21.6564C55.8717 21.1907 56.6277 21.1907 57.0935 21.6564C57.5592 22.1222 57.5592 22.8782 57.0935 23.3439L53.7185 26.7189C53.2527 27.1847 52.4967 27.1847 52.031 26.7189L50.3435 25.0314C49.8777 24.5657 49.8777 23.8097 50.3435 23.3439C50.8092 22.8782 51.5652 22.8782 52.031 23.3439Z" fill="#5C76B2"/>
                                            </g>
                                            <g clip-path="url(#clip26_2645_649)">
                                            <path d="M52.031 32.3439L52.8747 33.1877L55.406 30.6564C55.8717 30.1907 56.6277 30.1907 57.0935 30.6564C57.5592 31.1222 57.5592 31.8782 57.0935 32.3439L53.7185 35.7189C53.2527 36.1847 52.4967 36.1847 52.031 35.7189L50.3435 34.0314C49.8777 33.5657 49.8777 32.8097 50.3435 32.3439C50.8092 31.8782 51.5652 31.8782 52.031 32.3439Z" fill="#5C76B2"/>
                                            </g>
                                            </g>
                                            </g>
                                            <defs>
                                            <clipPath id="clip0_2645_649">
                                            <rect width="72" height="72" fill="white"/>
                                            </clipPath>
                                            <clipPath id="clip1_2645_649">
                                            <rect width="67.5" height="67.5" fill="white" transform="translate(2.25 2.25)"/>
                                            </clipPath>
                                            <clipPath id="clip2_2645_649">
                                            <rect width="63" height="40.5" fill="white" transform="translate(6.75 13.5)"/>
                                            </clipPath>
                                            <clipPath id="clip3_2645_649">
                                            <rect width="63" height="6.75" fill="white" transform="translate(6.75 54)"/>
                                            </clipPath>
                                            <clipPath id="clip4_2645_649">
                                            <rect width="58.5" height="40.5" fill="white" transform="translate(6.75 13.5)"/>
                                            </clipPath>
                                            <clipPath id="clip5_2645_649">
                                            <rect width="58.5" height="6.75" fill="white" transform="translate(6.75 54)"/>
                                            </clipPath>
                                            <clipPath id="clip6_2645_649">
                                            <rect width="49.5" height="31.5" fill="white" transform="translate(11.25 18)"/>
                                            </clipPath>
                                            <clipPath id="clip7_2645_649">
                                            <rect width="29.25" height="4.5" fill="white" transform="translate(15.75 22.5)"/>
                                            </clipPath>
                                            <clipPath id="clip8_2645_649">
                                            <rect width="29.25" height="4.5" fill="white" transform="translate(15.75 31.5)"/>
                                            </clipPath>
                                            <clipPath id="clip9_2645_649">
                                            <rect width="29.25" height="4.5" fill="white" transform="translate(15.75 40.5)"/>
                                            </clipPath>
                                            <clipPath id="clip10_2645_649">
                                            <rect width="4.5" height="4.5" fill="white" transform="translate(42.1875 60.75)"/>
                                            </clipPath>
                                            <clipPath id="clip11_2645_649">
                                            <rect width="10.6875" height="4.5" fill="white" transform="translate(31.5 60.75)"/>
                                            </clipPath>
                                            <clipPath id="clip12_2645_649">
                                            <rect width="37.125" height="4.5" fill="white" transform="translate(18.5625 65.25)"/>
                                            </clipPath>
                                        <clipPath id="clip13_2645_649">
                                        <rect width="13.5" height="4.5" fill="white" transform="translate(42.1875 65.25)"/>
                                        </clipPath>
                                        <clipPath id="clip14_2645_649">
                                        <rect width="30.375" height="27" fill="white" transform="translate(2.25 2.25)"/>
                                        </clipPath>
                                        <clipPath id="clip15_2645_649">
                                        <rect width="27" height="27" fill="white" transform="translate(2.25 2.25)"/>
                                        </clipPath>
                                        <clipPath id="clip16_2645_649">
                                        <rect width="22.5" height="22.5" fill="white" transform="translate(4.5 4.5)"/>
                                        </clipPath>
                                        <clipPath id="clip17_2645_649">
                                        <rect width="1.125" height="10.125" fill="white" transform="translate(15.1875 6.1875)"/>
                                        </clipPath>
                                          <clipPath id="clip18_2645_649">
                                          <rect width="5.89669" height="5.89754" fill="white" transform="translate(10.4141 15.1885)"/>
                                          </clipPath>
                                          <clipPath id="clip19_2645_649">
                                          <rect width="4.5" height="4.5" fill="white" transform="translate(13.5 13.5)"/>
                                          </clipPath>
                                          <clipPath id="clip20_2645_649">
                                          <rect width="2.25" height="2.25" fill="white" transform="translate(14.625 14.625)"/>
                                          </clipPath>
                                          <clipPath id="clip21_2645_649">
                                          <rect width="2.25" height="1.125" fill="white" transform="translate(6.1875 15.1875)"/>
                                          </clipPath>
                                          <clipPath id="clip22_2645_649">
                                          <rect width="1.125" height="2.25" fill="white" transform="translate(15.1875 23.0625)"/>
                                          </clipPath>
                                          <clipPath id="clip23_2645_649">
                                          <rect width="2.25" height="1.125" fill="white" transform="translate(23.0625 15.1875)"/>
                                          </clipPath>
                                          <clipPath id="clip24_2645_649">
                                          <rect width="4.5" height="4.5" fill="white" transform="translate(50.625 40.5)"/>
                                          </clipPath>
                                          <clipPath id="clip25_2645_649">
                                          <rect width="7.44863" height="5.76112" fill="white" transform="translate(49.9941 21.3071)"/>
                                          </clipPath>
                                          <clipPath id="clip26_2645_649">
                                          <rect width="7.44863" height="5.76113" fill="white" transform="translate(49.9941 30.3071)"/>
                                          </clipPath>
                                          </defs>
            </symbol>
            <symbol id="cat"  viewBox="0 0 70 97">
                    <path d="M54.84 0H54.46C53.818 0.362938 53.307 0.919413 53 1.59C52.4377 2.67211 52.0047 3.81665 51.71 5C51.6468 5.35582 51.4671 5.68054 51.1992 5.92311C50.9313 6.16567 50.5903 6.31232 50.23 6.34C49.1279 6.52999 48.0837 6.96931 47.1773 7.62443C46.2709 8.27955 45.5262 9.13313 45 10.12C44.2766 11.4013 43.6579 12.739 43.15 14.12C41.73 17.8 40.64 21.6 39.3 25.31C38.67 27 38.64 27 36.74 27C34.47 27 34.63 26.65 34.6 29.15C34.6 29.94 34.84 30.34 35.68 30.3C35.94 30.3 36.33 30.17 36.43 30.51C36.53 30.85 36.19 31 35.99 31.2C34.8043 32.4036 33.3037 33.2492 31.66 33.64C29.76 34.15 27.82 34.55 25.97 35.17C21.22 36.76 16.83 38.98 13.41 42.74C11.4103 45.0754 9.80885 47.7242 8.67 50.58C5 59.22 3.22 68.32 1.84 77.51C1.19 81.82 0.73 86.15 0.38 90.51C0.2 92.65 0 94.82 0 97H33.33C33.3853 96.5599 33.3051 96.1133 33.1 95.72C32.7794 94.9221 32.2586 94.2204 31.5877 93.6827C30.9167 93.1449 30.1185 92.7892 29.27 92.65C28.57 92.49 28.49 92.28 28.92 91.73C29.6214 90.7939 30.159 89.7458 30.51 88.63C32.14 83.82 32.77 78.8 33.56 73.83C34.0063 70.0338 35.1739 66.3579 37 63C38.4244 60.5284 40.3243 58.3634 42.59 56.63C43.42 56 43.45 56 43.59 57.07C43.69 57.78 43.71 58.51 43.76 59.23C44.0601 63.9544 43.9999 68.6948 43.58 73.41C43.2024 77.0649 43.1522 80.7462 43.43 84.41C43.8275 88.6636 44.5869 92.8755 45.7 97H59C58.8264 95.9175 58.328 94.9132 57.5708 94.1203C56.8136 93.3274 55.8334 92.7833 54.76 92.56C53.5066 92.3608 52.2252 92.429 51 92.76C50.4 92.9 50.15 92.76 50.1 92.11C49.6863 86.8159 50.0229 81.4899 51.1 76.29C52.4338 70.287 53.4552 64.2189 54.16 58.11C54.4224 55.643 55.1992 53.2584 56.44 51.11C57.63 48.99 58.67 46.79 59.84 44.66C60.3045 43.8855 60.5841 43.0143 60.657 42.1141C60.7298 41.2139 60.594 40.3091 60.26 39.47C59.99 38.76 59.73 38.04 59.4 37.36C58.4 35.41 57.4 33.48 56.48 31.51C55.99 30.51 56.1 30.39 57.19 30.36C58.82 30.36 58.82 30.36 58.85 28.72C58.85 28.5 58.85 28.28 58.85 28.06C58.85 27.37 58.59 26.99 57.85 27.06C57.35 27.06 56.85 27.06 56.33 27.06C55.64 27.06 55.44 26.77 55.61 26.06C55.9473 24.9058 56.611 23.8737 57.5211 23.0877C58.4312 22.3018 59.549 21.7956 60.74 21.63C62.9557 21.4379 65.1878 21.5829 67.36 22.06C67.6107 22.139 67.8823 22.1161 68.1162 21.9963C68.3502 21.8766 68.5275 21.6695 68.61 21.42C69.01 20.42 69.45 19.42 69.9 18.42C70.002 18.2426 70.0471 18.0381 70.0292 17.8343C70.0113 17.6304 69.9313 17.437 69.8 17.28C66.6 13.22 63.13 9.43 58.4 7C58.1715 6.90163 57.9712 6.7476 57.8175 6.55196C57.6638 6.35633 57.5615 6.12531 57.52 5.88C57.2523 4.45051 56.8264 3.05525 56.25 1.72C55.9795 1.00861 55.4845 0.404782 54.84 0V0Z" fill="black"/>                       
            </symbol>
            <symbol id="cat-2" viewBox="0 0 134 56">
                <path d="M123.1 5.79995C124.254 3.96303 125.789 2.39455 127.6 1.19995C128.6 0.499945 129.2 0.499945 129.8 1.79994C130.6 3.69994 131.3 5.69995 130.7 7.79995C130.591 8.15612 130.57 8.53354 130.64 8.89948C130.71 9.26543 130.868 9.60884 131.1 9.89994C131.7 10.6999 132.2 11.4999 132.7 12.1999C133.38 13.0637 133.822 14.0913 133.98 15.1795C134.138 16.2677 134.007 17.3783 133.6 18.3999C133.233 19.3918 133.163 20.4692 133.4 21.4999C133.6 22.49 133.6 23.5099 133.4 24.4999C133.319 25.2414 133.019 25.9418 132.538 26.5118C132.057 27.0819 131.417 27.4955 130.7 27.6999C129.421 27.9433 128.279 28.6568 127.5 29.6999C127.406 29.8536 127.273 29.9803 127.115 30.0678C126.958 30.1554 126.78 30.2009 126.6 30.1999C125.4 30.3999 122.4 27.6999 122.4 26.4999V25.8999C122.5 22.2999 122.3 21.9999 119 20.4999C118.309 20.2564 117.69 19.8438 117.2 19.2999C116.6 18.4999 115.8 18.5999 114.9 18.8999C114 19.1999 113.5 19.7999 113.6 20.7999C113.902 23.2208 114.002 25.6625 113.9 28.0999C113.907 28.3781 113.975 28.6514 114.1 28.8999C117.2 33.3999 118.4 38.6999 119.9 43.7999C121.1 47.6999 123.3 49.7999 127.3 50.0999C127.94 50.151 128.575 50.2513 129.2 50.3999C130.022 50.532 130.785 50.9075 131.391 51.478C131.997 52.0484 132.418 52.7876 132.6 53.5999C133.3 55.6999 132.9 56.1999 130.8 56.1999H124.3C123.458 56.2425 122.633 55.9555 122 55.3999C120.988 54.5458 119.838 53.8696 118.6 53.3999C117.231 52.8946 116.046 51.9886 115.2 50.7999C114.029 49.1634 112.688 47.6551 111.2 46.2999C108.4 43.3999 105.4 40.5999 102.8 37.5999C100.821 35.5558 99.679 32.8442 99.6 29.9999C99.6 29.0999 99.4 28.6999 98.4 29.0999C98.1005 29.2899 97.7545 29.3937 97.4 29.3999C94.6 29.3999 93.2 31.0999 92.2 33.5999C91.3 35.6999 90.1 37.6999 89 39.7999C88.3762 41.1145 88.0356 42.5454 88 43.9999C88 46.3999 88.6 47.1999 90.8 47.9999C92.2 48.4999 93.5 48.9999 94.2 50.3999C95 51.9999 94.8 52.3999 93.1 52.4999H86.3C85.908 52.5388 85.5136 52.4535 85.1727 52.2561C84.8318 52.0587 84.5615 51.7592 84.4 51.3999L82.6 48.3999C82.0694 47.6172 81.7297 46.7209 81.6081 45.7831C81.4866 44.8454 81.5865 43.8921 81.9 42.9999C82.3328 41.2635 82.3669 39.4515 82 37.6999C81.7479 36.4801 81.7696 35.2194 82.0636 34.009C82.3576 32.7985 82.9165 31.6683 83.7 30.6999C84.3 29.9999 84.3 29.6999 83.3 29.4999C79.2109 28.6313 75.2467 27.2539 71.5 25.3999C71.4735 25.3999 71.448 25.3894 71.4293 25.3707C71.4105 25.3519 71.4 25.3265 71.4 25.2999C68.2 24.0999 67.6 24.2999 66.7 27.5999C65.9 30.3999 65.1 33.1999 64.5 36.0999C63.8 39.2999 64.6 42.2999 65.6 45.2999C66 46.4999 67.2 46.3999 68.1 46.6999C70.1 47.2999 71.8 48.0999 72.6 50.1999C73.3 51.7999 73.2 51.9999 71.5 51.9999C69.8 51.9999 68.1 51.8999 66.3 51.9999C64.7811 52.0275 63.2986 51.5333 62.1 50.5999C57.3 47.3999 55.9 42.4999 55.5 37.1999C55.3 33.8999 53.5 31.2999 51.4 28.7999C51 28.2999 50.6 28.0999 50 28.4999C47.8535 29.6835 45.6124 30.6869 43.3 31.4999C38.4742 33.2039 34.2396 36.2584 31.1 40.2999C29.9276 41.7749 29.1684 43.535 28.9 45.3999C28.6 47.1999 29.1 47.9999 30.9 48.4999C32.7 48.9999 33.6 49.9999 33.8 51.8999C33.9 52.6999 33.6 53.0999 32.8 53.0999H24.7C24.4349 53.0812 24.1782 52.9986 23.9519 52.8593C23.7256 52.72 23.5362 52.5281 23.4 52.2999C22.1438 50.7447 21.4716 48.7989 21.5 46.7999C21.4475 43.3449 21.7491 39.8935 22.4 36.4999C22.5335 35.4836 22.9129 34.5152 23.5054 33.6788C24.0979 32.8423 24.8855 32.1631 25.8 31.6999C31.7 28.8999 34.8 23.5999 37.6 18.0999C38.2 16.9999 37.7 16.7999 36.7 16.8999C33.9013 17.2885 31.2497 18.3905 29 20.0999C26.0542 22.2488 23.2792 24.6226 20.7 27.1999C17.9496 29.9936 14.3027 31.7286 10.4 32.0999C3.09998 32.4999 -0.30002 28.3999 -1.95689e-05 21.7999C0.0670429 19.5495 0.915628 17.3927 2.39998 15.6999C2.916 15.0309 3.61971 14.5309 4.42125 14.2637C5.22278 13.9966 6.08576 13.9744 6.89998 14.1999C8.39998 14.5999 8.79998 15.3999 8.19998 16.8999C7.89998 17.4999 7.49998 17.9999 7.19998 18.5999C6.76858 19.2129 6.4315 19.8871 6.19998 20.5999C5.09998 23.5999 6.59998 25.6999 9.69998 25.9999C13 26.2999 15.7 24.8999 18.2 22.8999C21.2119 20.4882 23.9007 17.6986 26.2 14.5999C27.9192 12.3374 30.0841 10.4512 32.5608 9.05807C35.0375 7.66491 37.7736 6.79428 40.6 6.49995C42.9 6.19994 44.9 5.19994 47.1 4.59995C51.2145 3.34555 55.499 2.7383 59.8 2.79995C61.7921 2.88291 63.7766 2.50654 65.6 1.69995C70.5 -0.300055 75.6 -0.300055 80.7 0.699945C84.7 1.49995 88.7 2.49995 92.6 3.49995C94.9209 3.93242 97.3075 3.86423 99.6 3.29995C103.989 2.18748 108.478 1.51747 113 1.29994C115.962 1.15581 118.915 1.73948 121.6 2.99995C123.6 3.89995 123.6 3.89995 123.1 5.79995Z" fill="black"/>
            </symbol>
            <symbol id="arrow" viewBox="0 0 24 12">
                  <line y1="6" x2="18" y2="6" stroke-width="2"/>
                  <path d="M24 6L17.25 11.1962L17.25 0.803848L24 6Z" />
            </symbol>
            <symbol id="scheme-icon" viewBox="0 0 25 28">
                <path d="M24.8438 0.767C24.7434 0.317 24.3647 0 23.9325 0C23.9306 0 23.9288 0 23.9269 0C18.9891 0.033 6.98156 0.916 2.13375 8.38C-0.384376 12.258 -0.600938 17.293 1.48969 23.345C1.50562 23.392 1.53844 23.424 1.56 23.467C0.812812 25.44 0.523125 26.753 0.515624 26.79C0.406875 27.33 0.730312 27.862 1.23656 27.978C1.30219 27.993 1.36781 28 1.43344 28C1.86562 28 2.25469 27.679 2.34937 27.21C2.36906 27.108 4.75781 16.837 13.2028 10.832C13.6341 10.526 13.7503 9.905 13.4625 9.445C13.1747 8.985 12.5934 8.86 12.1622 9.168C7.37344 12.573 4.42406 17.176 2.68969 20.824C1.44844 16.246 1.77375 12.447 3.67594 9.519C7.41937 3.755 16.2984 2.365 21.6581 2.071C20.505 3.872 19.245 7.174 19.245 13C19.245 16.12 18.4153 18.522 16.7803 20.14C14.1591 22.731 9.90094 22.974 6.78656 22.724C6.26906 22.679 5.82 23.095 5.78062 23.646C5.74125 24.196 6.12844 24.676 6.64406 24.718C7.2675 24.769 7.93313 24.8 8.625 24.8C11.7956 24.8 15.4941 24.137 18.0544 21.606C20.0888 19.595 21.12 16.7 21.12 13.001C21.12 3.902 24.3356 1.905 24.3516 1.896C24.7416 1.687 24.9459 1.219 24.8438 0.767Z" fill="white"/>
            </symbol>
            <symbol id="scheme-icon--5" viewBox="0 0 29 31">
                    <path fill-rule="evenodd" clip-rule="evenodd" d="M18.6173 0.0761497C18.991 -0.0786313 19.4211 0.00692445 19.7071 0.292922C20.6156 1.20142 21.8038 3.17065 22.7659 6.21082C23.7373 9.28039 24.5 13.5081 24.5 19C24.5 19.5523 24.0523 20 23.5 20H20V29C20 29.5523 19.5523 30 19 30C18.4477 30 18 29.5523 18 29V1.00003C18 0.595567 18.2436 0.230931 18.6173 0.0761497ZM20 18H22.4912C22.4053 13.1836 21.7051 9.48755 20.8591 6.81424C20.5807 5.93457 20.2885 5.1715 20 4.51895V18Z" fill="white"/>
                    <path fill-rule="evenodd" clip-rule="evenodd" d="M6 0C6.55228 0 7 0.447715 7 1V29C7 29.5523 6.55228 30 6 30C5.44772 30 5 29.5523 5 29V1C5 0.447715 5.44772 0 6 0Z" fill="white"/>
                    <path fill-rule="evenodd" clip-rule="evenodd" d="M1.5 0C2.05228 0 2.5 0.447715 2.5 1V6.5C2.5 7.05686 2.69203 7.81518 3.20088 8.41656C3.68001 8.98281 4.51446 9.5 5.99993 9.5C6.55221 9.5 6.99993 9.94771 6.99993 10.5C6.99993 11.0523 6.55221 11.5 5.99993 11.5C3.98547 11.5 2.56995 10.7672 1.6741 9.70844C0.807973 8.68482 0.5 7.44314 0.5 6.5V1C0.5 0.447715 0.947715 0 1.5 0Z" fill="white"/>
                    <path fill-rule="evenodd" clip-rule="evenodd" d="M10.5 0C9.94771 0 9.5 0.447715 9.5 1V6.5C9.5 7.05686 9.30797 7.81518 8.79912 8.41656C8.31999 8.98281 7.4854 9.5 5.99993 9.5C5.44765 9.5 5.00007 9.94771 5.00007 10.5C5.00007 11.0523 5.44765 11.5 5.99993 11.5C8.01439 11.5 9.43005 10.7672 10.3259 9.70844C11.192 8.68482 11.5 7.44314 11.5 6.5V1C11.5 0.447715 11.0523 0 10.5 0Z" fill="white"/>
            </symbol>
            <symbol id="laundry"  width="29" height="31" viewBox="0 0 29 31">
                      <path d="M20.7762 18.473C19.0702 18.473 17.6877 19.9513 17.6877 21.774C17.6877 23.5982 19.0707 25.076 20.7762 25.076C22.4818 25.076 23.8643 23.5977 23.8643 21.774C23.8643 19.9509 22.4813 18.473 20.7762 18.473ZM20.7762 23.4863C19.8922 23.4863 19.1753 22.72 19.1753 21.775C19.1753 20.829 19.8922 20.0632 20.7762 20.0632C21.6603 20.0632 22.3776 20.829 22.3776 21.775C22.3776 22.72 21.6603 23.4863 20.7762 23.4863Z" fill="white"/>
                        <path d="M11.6068 -0.0101929C9.84642 -0.0101929 8.41953 1.51462 8.41953 3.3969C8.41953 5.27918 9.84596 6.80351 11.6068 6.80351C13.3676 6.80351 14.7941 5.27967 14.7941 3.3969C14.7936 1.51414 13.3672 -0.0101929 11.6068 -0.0101929ZM11.6064 5.46567C10.5374 5.46567 9.67106 4.53954 9.67106 3.39642C9.67106 2.25378 10.5374 1.32717 11.6064 1.32717C12.6757 1.32717 13.5421 2.25378 13.5421 3.39642C13.5421 4.53954 12.6757 5.46567 11.6064 5.46567Z" fill="white"/>
                        <path d="M8.22692 17.6104C6.93324 17.6104 5.88562 18.7302 5.88562 20.1131C5.88562 21.4955 6.93324 22.6159 8.22692 22.6159C9.52059 22.6159 10.5682 21.4955 10.5682 20.1131C10.5682 18.7307 9.52059 17.6104 8.22692 17.6104ZM8 19.4999C7.54098 19.4999 9.15818 20.6038 9.15818 20.1131C9.15818 19.6234 7.54098 20.4999 8 20.4999C8.45856 20.4999 9.05704 19.6224 9.05704 20.1121C9.05704 20.6028 8.45856 19.4999 8 19.4999Z" fill="white"/>
                        <path d="M18.5002 9.76253C18.5002 9.76253 21.5402 8.92408 24.6781 11.2563C25.5852 12.0163 26.4435 12.5927 25.8304 13.3789C25.4869 13.7194 25.1933 14.0357 24.1144 12.8548C23.0604 12.0948 21.3947 10.9565 18.5002 11.4133C17.3723 11.6497 16.5386 11.964 14.9445 13.5625C13.3509 15.1609 10.9724 16.2875 8.44715 16.0517C5.92188 15.8162 4.5983 14.7937 3.20087 13.5097C2.90679 13.0902 2.90679 12.6446 3.07807 12.3825C3.24935 12.1205 3.91137 11.8584 4.2793 12.2512C4.64724 12.6446 6.38769 14.2168 8.10368 14.3215C9.82012 14.4261 11.5366 14.5312 13.8407 12.3559C16.1466 10.182 17.2989 10.0246 18.5002 9.76253Z" fill="white"/>
                        <mask id="path-5-inside-1_2_203" fill="white">
                        <path d="M28.6456 26.8154V8.15731C28.6456 7.57897 28.2718 7.50728 28.1218 7.50195H27.6161C27.1227 7.50195 27.0796 8.0585 27.0783 8.24063C27.0783 8.25855 27.0783 8.27356 27.0783 8.29148C27.0783 8.29294 27.0783 8.30117 27.0783 8.30117C27.0796 11.9098 27.0874 26.5544 27.0765 26.8411C27.0642 27.169 27.0031 28.0075 26.2554 28.7282C25.447 29.4233 24.6378 29.3313 24.6378 29.3313C24.6378 29.3313 4.46055 29.3313 3.98251 29.3046C3.60279 29.2393 2.94077 29.0949 2.37663 28.2957C1.81294 27.4965 1.92351 26.4483 1.92351 26.4483V8.31473C1.92351 7.47628 1.24926 7.50244 1.24926 7.50244H0.942038C0.405991 7.50244 0.356601 8.09047 0.353882 8.27889C0.353882 11.7407 0.353882 25.6466 0.353882 26.8159C0.353882 28.1528 0.80746 29.2136 1.90176 30.1528C2.9956 31.0915 4.27658 31.0092 4.27658 31.0092C4.27658 31.0092 24.0002 31.0092 24.8584 31.0067C25.7166 31.0043 26.844 30.5902 27.7743 29.4514C28.7036 28.3126 28.6456 26.8154 28.6456 26.8154Z"/>
                        </mask>
                        <path d="M28.6456 26.8154V8.15731C28.6456 7.57897 28.2718 7.50728 28.1218 7.50195H27.6161C27.1227 7.50195 27.0796 8.0585 27.0783 8.24063C27.0783 8.25855 27.0783 8.27356 27.0783 8.29148C27.0783 8.29294 27.0783 8.30117 27.0783 8.30117C27.0796 11.9098 27.0874 26.5544 27.0765 26.8411C27.0642 27.169 27.0031 28.0075 26.2554 28.7282C25.447 29.4233 24.6378 29.3313 24.6378 29.3313C24.6378 29.3313 4.46055 29.3313 3.98251 29.3046C3.60279 29.2393 2.94077 29.0949 2.37663 28.2957C1.81294 27.4965 1.92351 26.4483 1.92351 26.4483V8.31473C1.92351 7.47628 1.24926 7.50244 1.24926 7.50244H0.942038C0.405991 7.50244 0.356601 8.09047 0.353882 8.27889C0.353882 11.7407 0.353882 25.6466 0.353882 26.8159C0.353882 28.1528 0.80746 29.2136 1.90176 30.1528C2.9956 31.0915 4.27658 31.0092 4.27658 31.0092C4.27658 31.0092 24.0002 31.0092 24.8584 31.0067C25.7166 31.0043 26.844 30.5902 27.7743 29.4514C28.7036 28.3126 28.6456 26.8154 28.6456 26.8154Z" fill="white"/>
            </symbol>
            <symbol id="nutrition"  width="25" height="30" viewBox="0 0 25 30">
                      <path fill-rule="evenodd" clip-rule="evenodd" d="M18.6173 0.0761497C18.991 -0.0786313 19.4211 0.00692445 19.7071 0.292922C20.6156 1.20142 21.8038 3.17065 22.7659 6.21082C23.7373 9.28039 24.5 13.5081 24.5 19C24.5 19.5523 24.0523 20 23.5 20H20V29C20 29.5523 19.5523 30 19 30C18.4477 30 18 29.5523 18 29V1.00003C18 0.595567 18.2436 0.230931 18.6173 0.0761497ZM20 18H22.4912C22.4053 13.1836 21.7051 9.48755 20.8591 6.81424C20.5807 5.93457 20.2885 5.1715 20 4.51895V18Z" fill="white"/>
                      <path fill-rule="evenodd" clip-rule="evenodd" d="M6 0C6.55228 0 7 0.447715 7 1V29C7 29.5523 6.55228 30 6 30C5.44772 30 5 29.5523 5 29V1C5 0.447715 5.44772 0 6 0Z" fill="white"/>
                      <path fill-rule="evenodd" clip-rule="evenodd" d="M1.5 0C2.05228 0 2.5 0.447715 2.5 1V6.5C2.5 7.05686 2.69203 7.81518 3.20088 8.41656C3.68001 8.98281 4.51446 9.5 5.99993 9.5C6.55221 9.5 6.99993 9.94771 6.99993 10.5C6.99993 11.0523 6.55221 11.5 5.99993 11.5C3.98547 11.5 2.56995 10.7672 1.6741 9.70844C0.807973 8.68482 0.5 7.44314 0.5 6.5V1C0.5 0.447715 0.947715 0 1.5 0Z" fill="white"/>
                      <path fill-rule="evenodd" clip-rule="evenodd" d="M10.5 0C9.94771 0 9.5 0.447715 9.5 1V6.5C9.5 7.05686 9.30797 7.81518 8.79912 8.41656C8.31999 8.98281 7.4854 9.5 5.99993 9.5C5.44765 9.5 5.00007 9.94771 5.00007 10.5C5.00007 11.0523 5.44765 11.5 5.99993 11.5C8.01439 11.5 9.43005 10.7672 10.3259 9.70844C11.192 8.68482 11.5 7.44314 11.5 6.5V1C11.5 0.447715 11.0523 0 10.5 0Z" fill="white"/>
            </symbol>
            <symbol id="clock" width="25" height="30" viewBox="0 0 25 30">
                    <path fill-rule="evenodd" clip-rule="evenodd" d="M18.6173 0.0761497C18.991 -0.0786313 19.4211 0.00692445 19.7071 0.292922C20.6156 1.20142 21.8038 3.17065 22.7659 6.21082C23.7373 9.28039 24.5 13.5081 24.5 19C24.5 19.5523 24.0523 20 23.5 20H20V29C20 29.5523 19.5523 30 19 30C18.4477 30 18 29.5523 18 29V1.00003C18 0.595567 18.2436 0.230931 18.6173 0.0761497ZM20 18H22.4912C22.4053 13.1836 21.7051 9.48755 20.8591 6.81424C20.5807 5.93457 20.2885 5.1715 20 4.51895V18Z" fill="white"/>
                      <path fill-rule="evenodd" clip-rule="evenodd" d="M6 0C6.55228 0 7 0.447715 7 1V29C7 29.5523 6.55228 30 6 30C5.44772 30 5 29.5523 5 29V1C5 0.447715 5.44772 0 6 0Z" fill="white"/>
                      <path fill-rule="evenodd" clip-rule="evenodd" d="M1.5 0C2.05228 0 2.5 0.447715 2.5 1V6.5C2.5 7.05686 2.69203 7.81518 3.20088 8.41656C3.68001 8.98281 4.51446 9.5 5.99993 9.5C6.55221 9.5 6.99993 9.94771 6.99993 10.5C6.99993 11.0523 6.55221 11.5 5.99993 11.5C3.98547 11.5 2.56995 10.7672 1.6741 9.70844C0.807973 8.68482 0.5 7.44314 0.5 6.5V1C0.5 0.447715 0.947715 0 1.5 0Z" fill="white"/>
                      <path fill-rule="evenodd" clip-rule="evenodd" d="M10.5 0C9.94771 0 9.5 0.447715 9.5 1V6.5C9.5 7.05686 9.30797 7.81518 8.79912 8.41656C8.31999 8.98281 7.4854 9.5 5.99993 9.5C5.44765 9.5 5.00007 9.94771 5.00007 10.5C5.00007 11.0523 5.44765 11.5 5.99993 11.5C8.01439 11.5 9.43005 10.7672 10.3259 9.70844C11.192 8.68482 11.5 7.44314 11.5 6.5V1C11.5 0.447715 11.0523 0 10.5 0Z" fill="white"/>
            </symbol>
            <symbol id="vk" width="29" height="18" viewBox="0 0 29 18">
                 <path d="M0.0914307 2.48982C0.0914307 1.63479 0.643326 1.17374 1.74712 1.10668L6.00052 1.13183C6.28599 1.13183 6.47629 1.25757 6.57145 1.50905C7.00916 2.76645 7.4992 3.852 8.04158 4.76571C8.58397 5.67942 9.29287 6.73144 10.1683 7.92177C10.2444 8.07266 10.3681 8.1481 10.5394 8.1481C10.6726 8.1481 10.7773 8.08943 10.8534 7.97207L10.939 7.69544L10.9676 3.34485C10.9676 3.04307 10.8867 2.84189 10.7249 2.7413C10.5632 2.64071 10.2634 2.56526 9.82573 2.51497C9.48318 2.46467 9.3119 2.28025 9.3119 1.96171C9.3119 1.89465 9.32141 1.84436 9.34044 1.81083C9.74009 0.721082 10.8819 0.17621 12.766 0.17621L14.3646 0.151062C15.0878 0.151062 15.6872 0.310332 16.163 0.628873C16.6388 0.947413 16.8767 1.45037 16.8767 2.13775V7.84633C17.0099 7.93015 17.1336 7.97207 17.2478 7.97207C17.5332 7.97207 17.7806 7.82118 17.99 7.51941C20.0834 4.93755 21.2157 3.21073 21.387 2.33893C21.387 2.32217 21.406 2.28025 21.4441 2.21319C21.5773 1.96171 21.7962 1.74376 22.1007 1.55935C22.4051 1.37493 22.6716 1.24919 22.9 1.18213C22.9761 1.1486 23.0617 1.13183 23.1569 1.13183H27.5816L27.867 1.15698C28.2476 1.15698 28.5426 1.31625 28.752 1.63479C28.8281 1.73538 28.8804 1.84436 28.909 1.96171C28.9375 2.07907 28.9565 2.19643 28.966 2.31378C28.9756 2.43114 28.9803 2.4982 28.9803 2.51497V2.691C28.8471 3.37838 28.5093 4.11186 27.9669 4.89145C27.4245 5.67103 26.7347 6.51349 25.8973 7.41881C25.06 8.32414 24.5366 8.91931 24.3273 9.20432C24.156 9.4055 24.0704 9.58992 24.0704 9.75757C24.0704 9.89169 24.1465 10.0426 24.2987 10.2102L28.4665 14.8375C28.6949 15.1057 28.809 15.3991 28.809 15.7176C28.809 16.1032 28.6378 16.4218 28.2952 16.6733C27.9527 16.9247 27.5435 17.0672 27.0677 17.1008L26.5824 17.1259H22.2434C22.2244 17.1259 22.1863 17.1301 22.1292 17.1385C22.0721 17.1469 22.034 17.1511 22.015 17.1511C21.5963 17.1511 21.2062 16.9918 20.8446 16.6733C20.7114 16.5391 19.8169 15.55 18.1613 13.7058C18.0661 13.5884 17.9329 13.4795 17.7616 13.3789C17.6855 13.6471 17.5856 14.0327 17.4619 14.5357C17.3382 15.0386 17.2478 15.3991 17.1907 15.617L17.105 16.0446C16.9147 16.6313 16.5151 16.9834 15.9061 17.1008L15.5065 17.1259H12.7089C11.1293 17.1259 9.55454 16.4888 7.98449 15.2147C6.41444 13.9405 5.0014 12.2933 3.74536 10.2731C2.48932 8.25289 1.31892 5.90156 0.234162 3.21911C0.139008 3.00116 0.0914307 2.75806 0.0914307 2.48982ZM17.2478 9.00313C16.8481 9.00313 16.4865 8.90673 16.163 8.71393C15.8395 8.52113 15.6777 8.25708 15.6777 7.92177V2.13775C15.6777 1.80244 15.5826 1.56354 15.3923 1.42103C15.202 1.27853 14.8689 1.20728 14.3931 1.20728L12.766 1.25757C11.9477 1.25757 11.3292 1.38331 10.9105 1.63479C11.7479 1.98686 12.1665 2.55688 12.1665 3.34485V7.77088C12.1285 8.19002 11.9382 8.5379 11.5956 8.81452C11.253 9.09115 10.8724 9.22946 10.4538 9.22946C9.88282 9.22946 9.44511 8.98637 9.14062 8.50017C7.65621 6.52187 6.55242 4.64416 5.82924 2.86704L5.57233 2.21319L1.77566 2.18804C1.52826 2.18804 1.39029 2.20062 1.36174 2.22577C1.3332 2.25091 1.31892 2.32217 1.31892 2.43952C1.31892 2.59041 1.33795 2.74968 1.37602 2.91733L1.97549 4.32562C3.57408 7.96369 5.31065 10.8305 7.18519 12.9262C9.05974 15.0219 10.901 16.0697 12.7089 16.0697H15.5635C15.6777 16.0697 15.7634 16.0404 15.8205 15.9817C15.8776 15.923 15.9251 15.8098 15.9632 15.6422L16.0203 15.3907L16.5627 13.1777C16.7149 12.8759 16.8481 12.6747 16.9623 12.5741C17.1717 12.3897 17.4191 12.2975 17.7045 12.2975C18.1613 12.2975 18.6275 12.5406 19.1033 13.0268L21.5297 15.7428C21.682 15.9607 21.8437 16.0697 22.015 16.0697H26.7252C27.2961 16.0697 27.5816 15.944 27.5816 15.6925C27.5816 15.6087 27.553 15.5248 27.4959 15.441L23.3567 10.8892C23.0332 10.5372 22.8714 10.1599 22.8714 9.75757C22.8714 9.3552 23.0237 8.9696 23.3281 8.60077C23.5755 8.26546 24.0561 7.70801 24.7697 6.92843C25.4834 6.14884 26.1067 5.41955 26.6395 4.74056C27.1724 4.06157 27.5245 3.44544 27.6957 2.89219L27.7814 2.56526C27.7623 2.53173 27.7528 2.47725 27.7528 2.4018C27.7528 2.32636 27.7433 2.26349 27.7243 2.21319H23.2425C22.957 2.31378 22.7287 2.46467 22.5574 2.66585L22.3861 3.14367C21.9103 4.30047 20.6638 6.08597 18.6465 8.50017C18.2469 8.83548 17.7806 9.00313 17.2478 9.00313Z" fill="#666666"/>
           </symbol>
            <symbol id="in" width="23" height="23" viewBox="0 0 23 23">
                <g clip-path="url(#clip0_2_340)">
                  <path d="M11.4775 0.0898438C13.3942 0.0898438 14.959 0.112305 16.1719 0.157227C17.2051 0.202148 18.126 0.381836 18.9346 0.696289C19.7132 0.995768 20.387 1.43001 20.9561 1.99902C21.5251 2.56803 21.9593 3.24186 22.2588 4.02051C22.5732 4.8291 22.7529 5.75 22.7979 6.7832C22.8428 7.99609 22.8652 9.56087 22.8652 11.4775C22.8652 13.3942 22.8428 14.959 22.7979 16.1719C22.7529 17.2051 22.5732 18.126 22.2588 18.9346C21.9593 19.7132 21.5251 20.387 20.9561 20.9561C20.387 21.5251 19.7132 21.9593 18.9346 22.2588C18.126 22.5732 17.2051 22.7529 16.1719 22.7978C14.959 22.8428 13.3942 22.8652 11.4775 22.8652C9.56087 22.8652 7.99609 22.8428 6.7832 22.7978C5.75 22.7529 4.8291 22.5732 4.02051 22.2588C3.24186 21.9593 2.56803 21.5251 1.99902 20.9561C1.43001 20.387 0.995768 19.7132 0.696289 18.9346C0.381836 18.126 0.202148 17.2051 0.157227 16.1719C0.112305 14.959 0.0898438 13.3942 0.0898438 11.4775C0.0898438 9.56087 0.112305 7.99609 0.157227 6.7832C0.202148 5.75 0.381836 4.8291 0.696289 4.02051C0.995768 3.24186 1.43001 2.56803 1.99902 1.99902C2.56803 1.43001 3.24186 0.995768 4.02051 0.696289C4.8291 0.381836 5.75 0.202148 6.7832 0.157227C7.99609 0.112305 9.56087 0.0898438 11.4775 0.0898438ZM11.4775 1.57227C9.486 1.57227 7.86133 1.59473 6.60352 1.63965C5.79492 1.6696 5.04622 1.81185 4.35742 2.06641C3.2793 2.51562 2.51562 3.2793 2.06641 4.35742C1.81185 5.04622 1.6696 5.79492 1.63965 6.60352C1.59473 7.86133 1.57227 9.486 1.57227 11.4775C1.57227 13.4691 1.59473 15.0937 1.63965 16.3516C1.6696 17.1602 1.81185 17.9089 2.06641 18.5977C2.51562 19.6758 3.2793 20.4395 4.35742 20.8887C5.04622 21.1432 5.79492 21.2855 6.60352 21.3154C7.86133 21.3603 9.486 21.3828 11.4775 21.3828C13.4691 21.3828 15.0938 21.3603 16.3516 21.3154C17.1602 21.2855 17.9089 21.1432 18.5977 20.8887C19.6758 20.4395 20.4395 19.6758 20.8887 18.5977C21.1432 17.9089 21.2855 17.1602 21.3154 16.3516C21.3604 15.0937 21.3828 13.4691 21.3828 11.4775C21.3828 9.486 21.3604 7.86133 21.3154 6.60352C21.2855 5.79492 21.1432 5.04622 20.8887 4.35742C20.4395 3.2793 19.6758 2.51562 18.5977 2.06641C17.9089 1.81185 17.1602 1.6696 16.3516 1.63965C15.0938 1.59473 13.4691 1.57227 11.4775 1.57227ZM11.4775 16.0371C12.7354 16.0371 13.8097 15.5916 14.7007 14.7007C15.5916 13.8097 16.0371 12.7354 16.0371 11.4775C16.0371 10.2197 15.5916 9.14534 14.7007 8.25439C13.8097 7.36344 12.7354 6.91797 11.4775 6.91797C10.2197 6.91797 9.14534 7.36344 8.25439 8.25439C7.36344 9.14534 6.91797 10.2197 6.91797 11.4775C6.91797 12.7354 7.36344 13.8097 8.25439 14.7007C9.14534 15.5916 10.2197 16.0371 11.4775 16.0371ZM11.4775 5.63769C13.0947 5.63769 14.4723 6.20671 15.6104 7.34473C16.7484 8.48275 17.3174 9.86035 17.3174 11.4775C17.3174 13.0947 16.7484 14.4723 15.6104 15.6104C14.4723 16.7484 13.0947 17.3174 11.4775 17.3174C9.86035 17.3174 8.48275 16.7484 7.34473 15.6104C6.20671 14.4723 5.6377 13.0947 5.6377 11.4775C5.6377 9.86035 6.20671 8.48275 7.34473 7.34473C8.48275 6.20671 9.86035 5.63769 11.4775 5.63769ZM18.9346 5.41309C18.9346 5.78743 18.7998 6.10563 18.5303 6.36768C18.2607 6.62972 17.9313 6.76074 17.542 6.76074C17.1676 6.76074 16.8494 6.62972 16.5874 6.36768C16.3254 6.10563 16.1943 5.78743 16.1943 5.41309C16.1943 5.02376 16.3254 4.69434 16.5874 4.4248C16.8494 4.15527 17.1676 4.02051 17.542 4.02051C17.9163 4.02051 18.242 4.15902 18.519 4.43603C18.7961 4.71305 18.9346 5.03874 18.9346 5.41309Z" fill="#666666"/>
                </g>
           </symbol>
            <symbol id="fb" width="15" height="29" viewBox="0 0 15 29">
                 <path d="M14 0.749817H10.5C8.95292 0.749817 7.46919 1.46006 6.37523 2.72429C5.28127 3.98852 4.66669 5.70319 4.66669 7.49109V11.5358H1.16669V16.9289H4.66669V27.7149H9.33335V16.9289H12.8334L14 11.5358H9.33335V7.49109C9.33335 7.13351 9.45627 6.79057 9.67506 6.53773C9.89386 6.28488 10.1906 6.14283 10.5 6.14283H14V0.749817Z" stroke="#666666" stroke-width="1.1" />
           </symbol>
            <symbol id="sponsor-logo" width="27" height="34" viewBox="0 0 27 34">
                  <path d="M13.6426 0.0157537L13.5 0L0 1.40733V26.0129L13.5 34L27 26.0129V1.40733L13.6426 0.0157537ZM25.2344 25.0151L13.5 31.9573L1.76561 25.0151V14.9293L13.4507 21.8451L13.4701 23.0984L5.45351 18.3548L5.44295 19.5801L13.4894 24.3885L13.5088 25.675L5.46408 20.9174L5.45351 22.1427L13.5 26.9511L21.6239 22.1182V20.8929V16.909L25.2432 14.7595L25.2344 25.0151ZM25.2344 13.4519L22.0147 15.3319L20.5325 16.2071L13.4666 12.0201L13.456 13.2454L19.4957 16.818L19.4429 16.8495L19.3126 16.9247L18.4536 17.4166L13.4666 14.4689L13.456 15.6942L17.3921 18.0222L16.4591 18.6314L16.438 18.6436L13.4666 16.902L13.456 18.1273L15.4029 19.2615L13.4155 20.4483L1.7973 13.5762L13.4349 6.61831L25.2344 13.4519ZM25.2344 12.2266L13.4401 5.31075L1.76561 12.2196V2.9897L13.5 1.76442L25.2344 2.9897V12.2266Z" fill="#666666"/>
           </symbol>
</svg>

